<svg width="640" height="291" viewBox="0 0 640 291" fill="none" xmlns="http://www.w3.org/2000/svg">
<path opacity="0.8" d="M180 16C180 11.5817 183.582 8 188 8H624C628.418 8 632 11.5817 632 16V275C632 279.418 628.418 283 624 283H188C183.582 283 180 279.418 180 275V16Z" fill="#121214"/>
<path opacity="0.8" d="M8 16C8 11.5817 11.5817 8 16 8H156C160.418 8 164 11.5817 164 16V275C164 279.418 160.418 283 156 283H16C11.5817 283 8 279.418 8 275V16Z" fill="#121214"/>
<path d="M42.1016 205.391C41.9609 206.594 41.5156 207.523 40.7656 208.18C40.0208 208.831 39.0286 209.156 37.7891 209.156C36.4453 209.156 35.3672 208.674 34.5547 207.711C33.7474 206.747 33.3438 205.458 33.3438 203.844V202.75C33.3438 201.693 33.5313 200.763 33.9063 199.961C34.2865 199.159 34.8229 198.544 35.5156 198.117C36.2083 197.685 37.0104 197.469 37.9219 197.469C39.1302 197.469 40.099 197.807 40.8281 198.484C41.5573 199.156 41.9818 200.089 42.1016 201.281L40.5938 201.281C40.4635 200.375 40.1797 199.719 39.7422 199.312C39.3099 198.906 38.7031 198.703 37.9219 198.703C36.9635 198.703 36.2109 199.057 35.6641 199.766C35.1224 200.474 34.8516 201.482 34.8516 202.789V203.891C34.8516 205.125 35.1094 206.107 35.625 206.836C36.1406 207.565 36.862 207.93 37.7891 207.93C38.6224 207.93 39.2604 207.742 39.7031 207.367C40.151 206.987 40.4479 206.328 40.5938 205.391L42.1016 205.391ZM49.1484 209C49.0651 208.833 48.9974 208.536 48.9453 208.109C48.2734 208.807 47.4714 209.156 46.5391 209.156C45.7057 209.156 45.0208 208.922 44.4844 208.453C43.9531 207.979 43.6875 207.38 43.6875 206.656C43.6875 205.776 44.0208 205.094 44.6875 204.609C45.3594 204.12 46.3021 203.875 47.5156 203.875H48.9219V203.211C48.9219 202.706 48.7708 202.305 48.4688 202.008C48.1667 201.706 47.7214 201.555 47.1328 201.555C46.6172 201.555 46.1849 201.685 45.8359 201.945C45.487 202.206 45.3125 202.521 45.3125 202.891H43.8594C43.8594 202.469 44.0078 202.062 44.3047 201.672C44.6068 201.276 45.013 200.964 45.5234 200.734C46.0391 200.505 46.6042 200.391 47.2188 200.391C48.1927 200.391 48.9557 200.635 49.5078 201.125C50.0599 201.609 50.3464 202.279 50.3672 203.133L50.3672 207.023C50.3672 207.799 50.4661 208.417 50.6641 208.875V209H49.1484ZM46.75 207.898C47.2031 207.898 47.6328 207.781 48.0391 207.547C48.4453 207.312 48.7396 207.008 48.9219 206.633V204.898H47.7891C46.0182 204.898 45.1328 205.417 45.1328 206.453C45.1328 206.906 45.2839 207.26 45.5859 207.516C45.888 207.771 46.276 207.898 46.75 207.898ZM56.7188 201.844C56.5 201.807 56.263 201.789 56.0078 201.789C55.0599 201.789 54.4167 202.193 54.0781 203L54.0781 209H52.6328L52.6328 200.547H54.0391L54.0625 201.523C54.5365 200.768 55.2083 200.391 56.0781 200.391C56.3594 200.391 56.5729 200.427 56.7188 200.5V201.844ZM60.4063 198.5V200.547H61.9844V201.664H60.4063L60.4063 206.906C60.4063 207.245 60.4766 207.5 60.6172 207.672C60.7578 207.839 60.9974 207.922 61.3359 207.922C61.5026 207.922 61.7318 207.891 62.0234 207.828V209C61.6432 209.104 61.2734 209.156 60.9141 209.156C60.2682 209.156 59.7813 208.961 59.4531 208.57C59.125 208.18 58.9609 207.625 58.9609 206.906L58.9609 201.664H57.4219V200.547H58.9609V198.5H60.4063ZM68.8984 209C68.8151 208.833 68.7474 208.536 68.6953 208.109C68.0234 208.807 67.2214 209.156 66.2891 209.156C65.4557 209.156 64.7708 208.922 64.2344 208.453C63.7031 207.979 63.4375 207.38 63.4375 206.656C63.4375 205.776 63.7708 205.094 64.4375 204.609C65.1094 204.12 66.0521 203.875 67.2656 203.875H68.6719V203.211C68.6719 202.706 68.5208 202.305 68.2188 202.008C67.9167 201.706 67.4714 201.555 66.8828 201.555C66.3672 201.555 65.9349 201.685 65.5859 201.945C65.237 202.206 65.0625 202.521 65.0625 202.891H63.6094C63.6094 202.469 63.7578 202.062 64.0547 201.672C64.3568 201.276 64.763 200.964 65.2734 200.734C65.7891 200.505 66.3542 200.391 66.9688 200.391C67.9427 200.391 68.7057 200.635 69.2578 201.125C69.8099 201.609 70.0964 202.279 70.1172 203.133V207.023C70.1172 207.799 70.2161 208.417 70.4141 208.875V209H68.8984ZM66.5 207.898C66.9531 207.898 67.3828 207.781 67.7891 207.547C68.1953 207.312 68.4896 207.008 68.6719 206.633V204.898H67.5391C65.7682 204.898 64.8828 205.417 64.8828 206.453C64.8828 206.906 65.0339 207.26 65.3359 207.516C65.638 207.771 66.026 207.898 66.5 207.898ZM69.8984 197.25C69.8984 197.812 69.737 198.268 69.4141 198.617C69.0964 198.966 68.6979 199.141 68.2188 199.141C68.0052 199.141 67.8203 199.115 67.6641 199.062C67.5078 199.01 67.3021 198.904 67.0469 198.742C66.7969 198.581 66.6146 198.484 66.5 198.453C66.3906 198.417 66.263 198.398 66.1172 198.398C65.9036 198.398 65.7214 198.482 65.5703 198.648C65.4193 198.81 65.3438 199.018 65.3438 199.273L64.375 199.219C64.375 198.661 64.5313 198.201 64.8438 197.836C65.1615 197.471 65.5625 197.289 66.0469 197.289C66.2292 197.289 66.3932 197.315 66.5391 197.367C66.6849 197.419 66.8828 197.521 67.1328 197.672C67.3828 197.823 67.5729 197.922 67.7031 197.969C67.8385 198.016 67.987 198.039 68.1484 198.039C68.3724 198.039 68.5573 197.951 68.7031 197.773C68.8542 197.596 68.9297 197.391 68.9297 197.156L69.8984 197.25ZM72 204.695C72 203.867 72.1615 203.122 72.4844 202.461C72.8125 201.799 73.2656 201.289 73.8438 200.93C74.4271 200.57 75.0911 200.391 75.8359 200.391C76.987 200.391 77.9167 200.789 78.625 201.586C79.3385 202.383 79.6953 203.443 79.6953 204.766V204.867C79.6953 205.69 79.5365 206.43 79.2188 207.086C78.9063 207.737 78.4557 208.245 77.8672 208.609C77.2839 208.974 76.612 209.156 75.8516 209.156C74.7057 209.156 73.776 208.758 73.0625 207.961C72.3542 207.164 72 206.109 72 204.797V204.695ZM73.4531 204.867C73.4531 205.805 73.6693 206.557 74.1016 207.125C74.5391 207.693 75.1224 207.977 75.8516 207.977C76.5859 207.977 77.1693 207.69 77.6016 207.117C78.0339 206.539 78.25 205.732 78.25 204.695C78.25 203.768 78.0286 203.018 77.5859 202.445C77.1484 201.867 76.5651 201.578 75.8359 201.578C75.1224 201.578 74.5469 201.862 74.1094 202.43C73.6719 202.997 73.4531 203.81 73.4531 204.867ZM85.125 204.703C85.125 203.406 85.4323 202.365 86.0469 201.578C86.6615 200.786 87.4661 200.391 88.4609 200.391C89.4505 200.391 90.2344 200.729 90.8125 201.406L90.8125 197H92.2578L92.2578 209H90.9297L90.8594 208.094C90.2813 208.802 89.4766 209.156 88.4453 209.156C87.4661 209.156 86.6667 208.755 86.0469 207.953C85.4323 207.151 85.125 206.104 85.125 204.812V204.703ZM86.5703 204.867C86.5703 205.826 86.7682 206.576 87.1641 207.117C87.5599 207.659 88.1068 207.93 88.8047 207.93C89.7214 207.93 90.3906 207.518 90.8125 206.695V202.812C90.3802 202.016 89.7161 201.617 88.8203 201.617C88.112 201.617 87.5599 201.891 87.1641 202.437C86.7682 202.984 86.5703 203.794 86.5703 204.867ZM98.0156 209.156C96.8698 209.156 95.9375 208.781 95.2188 208.031C94.5 207.276 94.1406 206.268 94.1406 205.008V204.742C94.1406 203.904 94.2995 203.156 94.6172 202.5C94.9401 201.839 95.388 201.323 95.9609 200.953C96.5391 200.578 97.1641 200.391 97.8359 200.391C98.9349 200.391 99.7891 200.753 100.398 201.477C101.008 202.201 101.313 203.237 101.313 204.586V205.187H95.5859C95.6068 206.021 95.849 206.695 96.3125 207.211C96.7813 207.721 97.375 207.977 98.0938 207.977C98.6042 207.977 99.0365 207.872 99.3906 207.664C99.7448 207.456 100.055 207.18 100.32 206.836L101.203 207.523C100.495 208.612 99.4323 209.156 98.0156 209.156ZM97.8359 201.578C97.2526 201.578 96.763 201.792 96.3672 202.219C95.9714 202.641 95.7266 203.234 95.6328 204H99.8672V203.891C99.8255 203.156 99.6276 202.589 99.2734 202.187C98.9193 201.781 98.4401 201.578 97.8359 201.578ZM110.469 209.156C109.323 209.156 108.391 208.781 107.672 208.031C106.953 207.276 106.594 206.268 106.594 205.008V204.742C106.594 203.904 106.753 203.156 107.07 202.5C107.393 201.839 107.841 201.323 108.414 200.953C108.992 200.578 109.617 200.391 110.289 200.391C111.388 200.391 112.242 200.753 112.852 201.477C113.461 202.201 113.766 203.237 113.766 204.586V205.187H108.039C108.06 206.021 108.302 206.695 108.766 207.211C109.234 207.721 109.828 207.977 110.547 207.977C111.057 207.977 111.49 207.872 111.844 207.664C112.198 207.456 112.508 207.18 112.773 206.836L113.656 207.523C112.948 208.612 111.885 209.156 110.469 209.156ZM110.289 201.578C109.706 201.578 109.216 201.792 108.82 202.219C108.424 202.641 108.18 203.234 108.086 204H112.32V203.891C112.279 203.156 112.081 202.589 111.727 202.187C111.372 201.781 110.893 201.578 110.289 201.578ZM116.805 200.547L116.844 201.484C117.464 200.755 118.299 200.391 119.352 200.391C120.534 200.391 121.339 200.844 121.766 201.75C122.047 201.344 122.411 201.016 122.859 200.766C123.313 200.516 123.846 200.391 124.461 200.391C126.315 200.391 127.258 201.372 127.289 203.336L127.289 209H125.844L125.844 203.422C125.844 202.818 125.706 202.367 125.43 202.07C125.154 201.768 124.69 201.617 124.039 201.617C123.503 201.617 123.057 201.779 122.703 202.102C122.349 202.419 122.143 202.849 122.086 203.391L122.086 209H120.633V203.461C120.633 202.232 120.031 201.617 118.828 201.617C117.88 201.617 117.232 202.021 116.883 202.828L116.883 209H115.438L115.438 200.547H116.805ZM136.633 204.867C136.633 206.159 136.336 207.198 135.742 207.984C135.148 208.766 134.352 209.156 133.352 209.156C132.284 209.156 131.458 208.779 130.875 208.023L130.805 209H129.477L129.477 197H130.922V201.477C131.505 200.753 132.31 200.391 133.336 200.391C134.362 200.391 135.167 200.779 135.75 201.555C136.339 202.331 136.633 203.393 136.633 204.742V204.867ZM135.188 204.703C135.188 203.719 134.997 202.958 134.617 202.422C134.237 201.885 133.69 201.617 132.977 201.617C132.023 201.617 131.339 202.06 130.922 202.945L130.922 206.602C131.365 207.487 132.055 207.93 132.992 207.93C133.685 207.93 134.224 207.661 134.609 207.125C134.995 206.589 135.188 205.781 135.188 204.703ZM138.492 208.242C138.492 207.992 138.565 207.784 138.711 207.617C138.862 207.451 139.086 207.367 139.383 207.367C139.68 207.367 139.904 207.451 140.055 207.617C140.211 207.784 140.289 207.992 140.289 208.242C140.289 208.482 140.211 208.682 140.055 208.844C139.904 209.005 139.68 209.086 139.383 209.086C139.086 209.086 138.862 209.005 138.711 208.844C138.565 208.682 138.492 208.482 138.492 208.242ZM48.9844 235H47.4766L41.75 226.234L41.75 235H40.2422L40.2422 223.625H41.75L47.4922 232.43L47.4922 223.625H48.9844L48.9844 235ZM51.2813 226.227C51.2813 225.404 51.526 224.74 52.0156 224.234C52.5052 223.724 53.151 223.469 53.9531 223.469C54.7604 223.469 55.4089 223.721 55.8984 224.227C56.388 224.727 56.6328 225.409 56.6328 226.273V226.852C56.6328 227.68 56.388 228.346 55.8984 228.852C55.4141 229.357 54.7708 229.609 53.9688 229.609C53.1667 229.609 52.5182 229.357 52.0234 228.852C51.5286 228.346 51.2813 227.664 51.2813 226.805V226.227ZM52.5547 226.852C52.5547 227.372 52.6797 227.781 52.9297 228.078C53.1849 228.375 53.5313 228.523 53.9688 228.523C54.401 228.523 54.7396 228.375 54.9844 228.078C55.2344 227.776 55.3594 227.362 55.3594 226.836V226.227C55.3594 225.711 55.2318 225.305 54.9766 225.008C54.7266 224.711 54.3854 224.562 53.9531 224.562C53.5313 224.562 53.1953 224.706 52.9453 224.992C52.6953 225.279 52.5651 225.674 52.5547 226.18V226.852ZM70.0078 230.297C70.0078 231.87 69.6823 233.073 69.0313 233.906C68.3802 234.74 67.4271 235.156 66.1719 235.156C64.9323 235.156 63.9844 234.747 63.3281 233.93C62.6719 233.112 62.3359 231.94 62.3203 230.414L62.3203 228.32C62.3203 226.732 62.6484 225.526 63.3047 224.703C63.9661 223.88 64.9167 223.469 66.1563 223.469C67.3958 223.469 68.3438 223.878 69 224.695C69.6563 225.508 69.9922 226.677 70.0078 228.203V230.297ZM67.75 228C67.75 227.057 67.6198 226.372 67.3594 225.945C67.1042 225.513 66.7031 225.297 66.1563 225.297C65.625 225.297 65.2318 225.503 64.9766 225.914C64.7266 226.32 64.5938 226.958 64.5781 227.828L64.5781 230.594C64.5781 231.521 64.7031 232.211 64.9531 232.664C65.2083 233.112 65.6146 233.336 66.1719 233.336C66.724 233.336 67.1224 233.12 67.3672 232.687C67.612 232.255 67.7396 231.594 67.75 230.703L67.75 228ZM79.1953 230.297C79.1953 231.87 78.8698 233.073 78.2188 233.906C77.5677 234.74 76.6146 235.156 75.3594 235.156C74.1198 235.156 73.1719 234.747 72.5156 233.93C71.8594 233.112 71.5234 231.94 71.5078 230.414L71.5078 228.32C71.5078 226.732 71.8359 225.526 72.4922 224.703C73.1536 223.88 74.1042 223.469 75.3438 223.469C76.5833 223.469 77.5313 223.878 78.1875 224.695C78.8438 225.508 79.1797 226.677 79.1953 228.203V230.297ZM76.9375 228C76.9375 227.057 76.8073 226.372 76.5469 225.945C76.2917 225.513 75.8906 225.297 75.3438 225.297C74.8125 225.297 74.4193 225.503 74.1641 225.914C73.9141 226.32 73.7813 226.958 73.7656 227.828L73.7656 230.594C73.7656 231.521 73.8906 232.211 74.1406 232.664C74.3958 233.112 74.8021 233.336 75.3594 233.336C75.9115 233.336 76.3099 233.12 76.5547 232.687C76.7995 232.255 76.9271 231.594 76.9375 230.703L76.9375 228ZM88.3828 230.297C88.3828 231.87 88.0573 233.073 87.4063 233.906C86.7552 234.74 85.8021 235.156 84.5469 235.156C83.3073 235.156 82.3594 234.747 81.7031 233.93C81.0469 233.112 80.7109 231.94 80.6953 230.414L80.6953 228.32C80.6953 226.732 81.0234 225.526 81.6797 224.703C82.3411 223.88 83.2917 223.469 84.5313 223.469C85.7708 223.469 86.7188 223.878 87.375 224.695C88.0313 225.508 88.3672 226.677 88.3828 228.203V230.297ZM86.125 228C86.125 227.057 85.9948 226.372 85.7344 225.945C85.4792 225.513 85.0781 225.297 84.5313 225.297C84 225.297 83.6068 225.503 83.3516 225.914C83.1016 226.32 82.9688 226.958 82.9531 227.828L82.9531 230.594C82.9531 231.521 83.0781 232.211 83.3281 232.664C83.5833 233.112 83.9896 233.336 84.5469 233.336C85.099 233.336 85.4974 233.12 85.7422 232.687C85.987 232.255 86.1146 231.594 86.125 230.703L86.125 228ZM97.5703 230.297C97.5703 231.87 97.2448 233.073 96.5938 233.906C95.9427 234.74 94.9896 235.156 93.7344 235.156C92.4948 235.156 91.5469 234.747 90.8906 233.93C90.2344 233.112 89.8984 231.94 89.8828 230.414L89.8828 228.32C89.8828 226.732 90.2109 225.526 90.8672 224.703C91.5286 223.88 92.4792 223.469 93.7188 223.469C94.9583 223.469 95.9063 223.878 96.5625 224.695C97.2188 225.508 97.5547 226.677 97.5703 228.203L97.5703 230.297ZM95.3125 228C95.3125 227.057 95.1823 226.372 94.9219 225.945C94.6667 225.513 94.2656 225.297 93.7188 225.297C93.1875 225.297 92.7943 225.503 92.5391 225.914C92.2891 226.32 92.1563 226.958 92.1406 227.828L92.1406 230.594C92.1406 231.521 92.2656 232.211 92.5156 232.664C92.7708 233.112 93.1771 233.336 93.7344 233.336C94.2865 233.336 94.6849 233.12 94.9297 232.687C95.1745 232.255 95.3021 231.594 95.3125 230.703L95.3125 228ZM105.227 223.508V225.367H105.008C103.987 225.383 103.164 225.648 102.539 226.164C101.919 226.68 101.547 227.396 101.422 228.312C102.026 227.698 102.789 227.391 103.711 227.391C104.701 227.391 105.487 227.745 106.07 228.453C106.654 229.161 106.945 230.094 106.945 231.25C106.945 231.99 106.784 232.659 106.461 233.258C106.143 233.857 105.69 234.323 105.102 234.656C104.518 234.99 103.857 235.156 103.117 235.156C101.919 235.156 100.951 234.74 100.211 233.906C99.4766 233.073 99.1094 231.961 99.1094 230.57V229.758C99.1094 228.523 99.3411 227.435 99.8047 226.492C100.273 225.544 100.943 224.812 101.813 224.297C102.688 223.776 103.701 223.513 104.852 223.508H105.227ZM103.023 229.203C102.659 229.203 102.328 229.299 102.031 229.492C101.734 229.68 101.516 229.93 101.375 230.242V230.93C101.375 231.685 101.523 232.276 101.82 232.703C102.117 233.125 102.534 233.336 103.07 233.336C103.555 233.336 103.945 233.146 104.242 232.766C104.544 232.38 104.695 231.883 104.695 231.273C104.695 230.654 104.544 230.154 104.242 229.773C103.94 229.393 103.534 229.203 103.023 229.203ZM113.773 235H111.516L111.516 226.297L108.82 227.133V225.297L113.531 223.609H113.773L113.773 235ZM122.961 235L120.703 235L120.703 226.297L118.008 227.133V225.297L122.719 223.609H122.961L122.961 235ZM134.32 230.297C134.32 231.87 133.995 233.073 133.344 233.906C132.693 234.74 131.74 235.156 130.484 235.156C129.245 235.156 128.297 234.747 127.641 233.93C126.984 233.112 126.648 231.94 126.633 230.414V228.32C126.633 226.732 126.961 225.526 127.617 224.703C128.279 223.88 129.229 223.469 130.469 223.469C131.708 223.469 132.656 223.878 133.313 224.695C133.969 225.508 134.305 226.677 134.32 228.203V230.297ZM132.063 228C132.063 227.057 131.932 226.372 131.672 225.945C131.417 225.513 131.016 225.297 130.469 225.297C129.938 225.297 129.544 225.503 129.289 225.914C129.039 226.32 128.906 226.958 128.891 227.828V230.594C128.891 231.521 129.016 232.211 129.266 232.664C129.521 233.112 129.927 233.336 130.484 233.336C131.036 233.336 131.435 233.12 131.68 232.687C131.924 232.255 132.052 231.594 132.063 230.703V228Z" fill="#E1E1E6"/>
<path d="M10 0.5H630C635.247 0.5 639.5 4.75329 639.5 10V281C639.5 286.247 635.247 290.5 630 290.5H10C4.75329 290.5 0.5 286.247 0.5 281V10C0.5 4.7533 4.7533 0.5 10 0.5Z" stroke="url(#paint0_linear_7156_17660)"/>
<line opacity="0.8" x1="172.5" y1="-2.18557e-08" x2="172.5" y2="291" stroke="url(#paint1_linear_7156_17660)" stroke-dasharray="4 6"/>
<path d="M455.086 204.406V206.141C455.086 207.073 455.003 207.859 454.836 208.5C454.669 209.141 454.43 209.656 454.117 210.047C453.805 210.438 453.427 210.721 452.984 210.898C452.547 211.07 452.052 211.156 451.5 211.156C451.062 211.156 450.659 211.102 450.289 210.992C449.919 210.883 449.586 210.708 449.289 210.469C448.997 210.224 448.747 209.906 448.539 209.516C448.331 209.125 448.172 208.651 448.062 208.094C447.953 207.536 447.898 206.885 447.898 206.141V204.406C447.898 203.474 447.982 202.693 448.148 202.062C448.32 201.432 448.562 200.927 448.875 200.547C449.188 200.161 449.562 199.885 450 199.719C450.443 199.552 450.938 199.469 451.484 199.469C451.927 199.469 452.333 199.523 452.703 199.633C453.078 199.737 453.411 199.906 453.703 200.141C453.995 200.37 454.242 200.677 454.445 201.062C454.654 201.443 454.812 201.909 454.922 202.461C455.031 203.013 455.086 203.661 455.086 204.406ZM453.633 206.375V204.164C453.633 203.654 453.602 203.206 453.539 202.82C453.482 202.43 453.396 202.096 453.281 201.82C453.167 201.544 453.021 201.32 452.844 201.148C452.672 200.977 452.471 200.852 452.242 200.773C452.018 200.69 451.766 200.648 451.484 200.648C451.141 200.648 450.836 200.714 450.57 200.844C450.305 200.969 450.081 201.169 449.898 201.445C449.721 201.721 449.586 202.083 449.492 202.531C449.398 202.979 449.352 203.523 449.352 204.164V206.375C449.352 206.885 449.38 207.336 449.438 207.727C449.5 208.117 449.591 208.456 449.711 208.742C449.831 209.023 449.977 209.255 450.148 209.438C450.32 209.62 450.518 209.755 450.742 209.844C450.971 209.927 451.224 209.969 451.5 209.969C451.854 209.969 452.164 209.901 452.43 209.766C452.695 209.63 452.917 209.419 453.094 209.133C453.276 208.841 453.411 208.469 453.5 208.016C453.589 207.557 453.633 207.01 453.633 206.375ZM464.398 209.812V211H456.953V209.961L460.68 205.812C461.138 205.302 461.492 204.87 461.742 204.516C461.997 204.156 462.174 203.836 462.273 203.555C462.378 203.268 462.43 202.977 462.43 202.68C462.43 202.305 462.352 201.966 462.195 201.664C462.044 201.357 461.82 201.112 461.523 200.93C461.227 200.747 460.867 200.656 460.445 200.656C459.94 200.656 459.518 200.755 459.18 200.953C458.846 201.146 458.596 201.417 458.43 201.766C458.263 202.115 458.18 202.516 458.18 202.969H456.734C456.734 202.328 456.875 201.742 457.156 201.211C457.438 200.68 457.854 200.258 458.406 199.945C458.958 199.628 459.638 199.469 460.445 199.469C461.164 199.469 461.779 199.596 462.289 199.852C462.799 200.102 463.19 200.456 463.461 200.914C463.737 201.367 463.875 201.898 463.875 202.508C463.875 202.841 463.818 203.18 463.703 203.523C463.594 203.862 463.44 204.201 463.242 204.539C463.049 204.878 462.823 205.211 462.562 205.539C462.307 205.867 462.034 206.19 461.742 206.508L458.695 209.812H464.398ZM475.055 209.555V205.203C475.055 204.87 474.987 204.581 474.852 204.336C474.721 204.086 474.523 203.893 474.258 203.758C473.992 203.622 473.664 203.555 473.273 203.555C472.909 203.555 472.589 203.617 472.312 203.742C472.042 203.867 471.828 204.031 471.672 204.234C471.521 204.437 471.445 204.656 471.445 204.891L470 204.891C470 204.589 470.078 204.289 470.234 203.992C470.391 203.695 470.615 203.427 470.906 203.187C471.203 202.943 471.557 202.75 471.969 202.609C472.385 202.464 472.849 202.391 473.359 202.391C473.974 202.391 474.516 202.495 474.984 202.703C475.458 202.911 475.828 203.227 476.094 203.648C476.365 204.065 476.5 204.589 476.5 205.219V209.156C476.5 209.437 476.523 209.737 476.57 210.055C476.622 210.372 476.698 210.646 476.797 210.875V211H475.289C475.216 210.833 475.159 210.612 475.117 210.336C475.076 210.055 475.055 209.794 475.055 209.555ZM475.305 205.875L475.32 206.891H473.859C473.448 206.891 473.081 206.924 472.758 206.992C472.435 207.055 472.164 207.151 471.945 207.281C471.727 207.411 471.56 207.576 471.445 207.773C471.331 207.966 471.273 208.193 471.273 208.453C471.273 208.719 471.333 208.961 471.453 209.18C471.573 209.398 471.753 209.573 471.992 209.703C472.237 209.828 472.536 209.891 472.891 209.891C473.333 209.891 473.724 209.797 474.062 209.609C474.401 209.422 474.669 209.193 474.867 208.922C475.07 208.651 475.18 208.388 475.195 208.133L475.812 208.828C475.776 209.047 475.677 209.289 475.516 209.555C475.354 209.82 475.138 210.076 474.867 210.32C474.602 210.56 474.284 210.76 473.914 210.922C473.549 211.078 473.138 211.156 472.68 211.156C472.107 211.156 471.604 211.044 471.172 210.82C470.745 210.596 470.411 210.297 470.172 209.922C469.938 209.542 469.82 209.117 469.82 208.648C469.82 208.195 469.909 207.797 470.086 207.453C470.263 207.104 470.518 206.815 470.852 206.586C471.185 206.352 471.586 206.174 472.055 206.055C472.523 205.935 473.047 205.875 473.625 205.875H475.305ZM489.727 204.406V206.141C489.727 207.073 489.643 207.859 489.477 208.5C489.31 209.141 489.07 209.656 488.758 210.047C488.445 210.437 488.068 210.721 487.625 210.898C487.188 211.07 486.693 211.156 486.141 211.156C485.703 211.156 485.299 211.102 484.93 210.992C484.56 210.883 484.227 210.708 483.93 210.469C483.638 210.224 483.388 209.906 483.18 209.516C482.971 209.125 482.812 208.651 482.703 208.094C482.594 207.536 482.539 206.885 482.539 206.141V204.406C482.539 203.474 482.622 202.693 482.789 202.062C482.961 201.432 483.203 200.927 483.516 200.547C483.828 200.161 484.203 199.885 484.641 199.719C485.083 199.552 485.578 199.469 486.125 199.469C486.568 199.469 486.974 199.523 487.344 199.633C487.719 199.737 488.052 199.906 488.344 200.141C488.635 200.37 488.883 200.677 489.086 201.062C489.294 201.443 489.453 201.909 489.562 202.461C489.672 203.013 489.727 203.661 489.727 204.406ZM488.273 206.375V204.164C488.273 203.654 488.242 203.206 488.18 202.82C488.122 202.43 488.036 202.096 487.922 201.82C487.807 201.544 487.661 201.32 487.484 201.148C487.312 200.977 487.112 200.852 486.883 200.773C486.659 200.69 486.406 200.648 486.125 200.648C485.781 200.648 485.477 200.714 485.211 200.844C484.945 200.969 484.721 201.169 484.539 201.445C484.362 201.721 484.227 202.083 484.133 202.531C484.039 202.979 483.992 203.523 483.992 204.164V206.375C483.992 206.885 484.021 207.336 484.078 207.727C484.141 208.117 484.232 208.456 484.352 208.742C484.471 209.023 484.617 209.255 484.789 209.437C484.961 209.62 485.159 209.755 485.383 209.844C485.612 209.927 485.865 209.969 486.141 209.969C486.495 209.969 486.805 209.901 487.07 209.766C487.336 209.63 487.557 209.419 487.734 209.133C487.917 208.841 488.052 208.469 488.141 208.016C488.229 207.557 488.273 207.01 488.273 206.375ZM497.133 199.609H497.258V200.836H497.133C496.367 200.836 495.727 200.961 495.211 201.211C494.695 201.456 494.286 201.786 493.984 202.203C493.682 202.615 493.464 203.078 493.328 203.594C493.198 204.109 493.133 204.633 493.133 205.164V206.836C493.133 207.341 493.193 207.789 493.312 208.18C493.432 208.565 493.596 208.891 493.805 209.156C494.013 209.422 494.247 209.622 494.508 209.758C494.773 209.893 495.049 209.961 495.336 209.961C495.669 209.961 495.966 209.898 496.227 209.773C496.487 209.643 496.706 209.464 496.883 209.234C497.065 209 497.203 208.724 497.297 208.406C497.391 208.089 497.438 207.74 497.438 207.359C497.438 207.021 497.396 206.695 497.312 206.383C497.229 206.065 497.102 205.784 496.93 205.539C496.758 205.289 496.542 205.094 496.281 204.953C496.026 204.807 495.721 204.734 495.367 204.734C494.966 204.734 494.591 204.833 494.242 205.031C493.898 205.224 493.615 205.479 493.391 205.797C493.172 206.109 493.047 206.451 493.016 206.82L492.25 206.812C492.323 206.229 492.458 205.732 492.656 205.32C492.859 204.904 493.109 204.565 493.406 204.305C493.708 204.039 494.044 203.846 494.414 203.727C494.789 203.602 495.185 203.539 495.602 203.539C496.169 203.539 496.659 203.646 497.07 203.859C497.482 204.073 497.82 204.359 498.086 204.719C498.352 205.073 498.547 205.474 498.672 205.922C498.802 206.365 498.867 206.82 498.867 207.289C498.867 207.826 498.792 208.328 498.641 208.797C498.49 209.266 498.263 209.677 497.961 210.031C497.664 210.385 497.297 210.661 496.859 210.859C496.422 211.057 495.914 211.156 495.336 211.156C494.721 211.156 494.185 211.031 493.727 210.781C493.268 210.526 492.888 210.187 492.586 209.766C492.284 209.344 492.057 208.875 491.906 208.359C491.755 207.844 491.68 207.32 491.68 206.789V206.109C491.68 205.307 491.76 204.521 491.922 203.75C492.083 202.979 492.362 202.281 492.758 201.656C493.159 201.031 493.714 200.534 494.422 200.164C495.13 199.794 496.034 199.609 497.133 199.609ZM453.43 231.359V221H454.883V233H453.555L453.43 231.359ZM447.742 228.867V228.703C447.742 228.057 447.82 227.471 447.977 226.945C448.138 226.414 448.365 225.958 448.656 225.578C448.953 225.198 449.305 224.906 449.711 224.703C450.122 224.495 450.581 224.391 451.086 224.391C451.617 224.391 452.081 224.484 452.477 224.672C452.878 224.854 453.216 225.122 453.492 225.477C453.773 225.826 453.995 226.247 454.156 226.742C454.318 227.237 454.43 227.797 454.492 228.422V229.141C454.435 229.76 454.323 230.318 454.156 230.812C453.995 231.307 453.773 231.729 453.492 232.078C453.216 232.427 452.878 232.695 452.477 232.883C452.076 233.065 451.607 233.156 451.07 233.156C450.576 233.156 450.122 233.049 449.711 232.836C449.305 232.622 448.953 232.323 448.656 231.938C448.365 231.552 448.138 231.099 447.977 230.578C447.82 230.052 447.742 229.482 447.742 228.867ZM449.195 228.703V228.867C449.195 229.289 449.237 229.685 449.32 230.055C449.409 230.424 449.544 230.75 449.727 231.031C449.909 231.312 450.141 231.534 450.422 231.695C450.703 231.852 451.039 231.93 451.43 231.93C451.909 231.93 452.302 231.828 452.609 231.625C452.922 231.422 453.172 231.154 453.359 230.82C453.547 230.487 453.693 230.125 453.797 229.734V227.852C453.734 227.565 453.643 227.289 453.523 227.023C453.409 226.753 453.258 226.513 453.07 226.305C452.888 226.091 452.661 225.922 452.391 225.797C452.125 225.672 451.81 225.609 451.445 225.609C451.049 225.609 450.708 225.693 450.422 225.859C450.141 226.021 449.909 226.245 449.727 226.531C449.544 226.812 449.409 227.141 449.32 227.516C449.237 227.885 449.195 228.281 449.195 228.703ZM460.641 233.156C460.052 233.156 459.518 233.057 459.039 232.859C458.565 232.656 458.156 232.372 457.813 232.008C457.474 231.643 457.214 231.211 457.031 230.711C456.849 230.211 456.758 229.664 456.758 229.07V228.742C456.758 228.055 456.859 227.443 457.063 226.906C457.266 226.365 457.542 225.906 457.891 225.531C458.24 225.156 458.635 224.872 459.078 224.68C459.521 224.487 459.979 224.391 460.453 224.391C461.057 224.391 461.578 224.495 462.016 224.703C462.458 224.911 462.82 225.203 463.102 225.578C463.383 225.948 463.591 226.385 463.727 226.891C463.862 227.391 463.93 227.937 463.93 228.531V229.18H457.617V228H462.484V227.891C462.464 227.516 462.385 227.151 462.25 226.797C462.12 226.443 461.911 226.151 461.625 225.922C461.339 225.693 460.948 225.578 460.453 225.578C460.125 225.578 459.823 225.648 459.547 225.789C459.271 225.924 459.034 226.128 458.836 226.398C458.638 226.669 458.484 227 458.375 227.391C458.266 227.781 458.211 228.232 458.211 228.742V229.07C458.211 229.471 458.266 229.849 458.375 230.203C458.49 230.552 458.654 230.859 458.867 231.125C459.086 231.391 459.349 231.599 459.656 231.75C459.969 231.901 460.323 231.977 460.719 231.977C461.229 231.977 461.661 231.872 462.016 231.664C462.37 231.456 462.68 231.177 462.945 230.828L463.82 231.523C463.638 231.799 463.406 232.062 463.125 232.312C462.844 232.562 462.497 232.766 462.086 232.922C461.68 233.078 461.198 233.156 460.641 233.156ZM471.023 226.227V233L469.57 233V224.547L470.945 224.547L471.023 226.227ZM470.727 228.453L470.055 228.43C470.06 227.852 470.135 227.318 470.281 226.828C470.427 226.333 470.643 225.904 470.93 225.539C471.216 225.174 471.573 224.893 472 224.695C472.427 224.492 472.922 224.391 473.484 224.391C473.88 224.391 474.245 224.448 474.578 224.562C474.911 224.672 475.201 224.846 475.445 225.086C475.69 225.326 475.88 225.633 476.016 226.008C476.151 226.383 476.219 226.836 476.219 227.367V233H474.773V227.437C474.773 226.995 474.698 226.641 474.547 226.375C474.401 226.109 474.193 225.917 473.922 225.797C473.651 225.672 473.333 225.609 472.969 225.609C472.542 225.609 472.185 225.685 471.898 225.836C471.612 225.987 471.383 226.195 471.211 226.461C471.039 226.727 470.914 227.031 470.836 227.375C470.763 227.714 470.727 228.073 470.727 228.453ZM476.203 227.656L475.234 227.953C475.24 227.49 475.315 227.044 475.461 226.617C475.612 226.19 475.828 225.81 476.109 225.477C476.396 225.143 476.747 224.88 477.164 224.687C477.581 224.49 478.057 224.391 478.594 224.391C479.047 224.391 479.448 224.451 479.797 224.57C480.151 224.69 480.448 224.875 480.688 225.125C480.932 225.37 481.117 225.685 481.242 226.07C481.367 226.456 481.43 226.914 481.43 227.445V233H479.977V227.43C479.977 226.956 479.901 226.589 479.75 226.328C479.604 226.062 479.396 225.878 479.125 225.773C478.859 225.664 478.542 225.609 478.172 225.609C477.854 225.609 477.573 225.664 477.328 225.773C477.083 225.883 476.878 226.034 476.711 226.227C476.544 226.414 476.417 226.63 476.328 226.875C476.245 227.12 476.203 227.38 476.203 227.656ZM488.602 231.555V227.203C488.602 226.87 488.534 226.581 488.398 226.336C488.268 226.086 488.07 225.893 487.805 225.758C487.539 225.622 487.211 225.555 486.82 225.555C486.456 225.555 486.135 225.617 485.859 225.742C485.589 225.867 485.375 226.031 485.219 226.234C485.068 226.437 484.992 226.656 484.992 226.891H483.547C483.547 226.589 483.625 226.289 483.781 225.992C483.938 225.695 484.161 225.427 484.453 225.187C484.75 224.943 485.104 224.75 485.516 224.609C485.932 224.464 486.396 224.391 486.906 224.391C487.521 224.391 488.063 224.495 488.531 224.703C489.005 224.911 489.375 225.227 489.641 225.648C489.911 226.065 490.047 226.589 490.047 227.219V231.156C490.047 231.437 490.07 231.737 490.117 232.055C490.169 232.372 490.245 232.646 490.344 232.875V233H488.836C488.763 232.833 488.706 232.612 488.664 232.336C488.622 232.055 488.602 231.794 488.602 231.555ZM488.852 227.875L488.867 228.891H487.406C486.995 228.891 486.628 228.924 486.305 228.992C485.982 229.055 485.711 229.151 485.492 229.281C485.273 229.411 485.107 229.576 484.992 229.773C484.878 229.966 484.82 230.193 484.82 230.453C484.82 230.719 484.88 230.961 485 231.18C485.12 231.398 485.299 231.573 485.539 231.703C485.784 231.828 486.083 231.891 486.438 231.891C486.88 231.891 487.271 231.797 487.609 231.609C487.948 231.422 488.216 231.193 488.414 230.922C488.617 230.651 488.727 230.388 488.742 230.133L489.359 230.828C489.323 231.047 489.224 231.289 489.063 231.555C488.901 231.82 488.685 232.076 488.414 232.32C488.148 232.56 487.831 232.76 487.461 232.922C487.096 233.078 486.685 233.156 486.227 233.156C485.654 233.156 485.151 233.044 484.719 232.82C484.292 232.596 483.958 232.297 483.719 231.922C483.484 231.542 483.367 231.117 483.367 230.648C483.367 230.195 483.456 229.797 483.633 229.453C483.81 229.104 484.065 228.815 484.398 228.586C484.732 228.352 485.133 228.174 485.602 228.055C486.07 227.935 486.594 227.875 487.172 227.875H488.852ZM493.891 224.547V233H492.438V224.547H493.891ZM492.328 222.305C492.328 222.07 492.398 221.872 492.539 221.711C492.685 221.549 492.898 221.469 493.18 221.469C493.456 221.469 493.667 221.549 493.813 221.711C493.964 221.872 494.039 222.07 494.039 222.305C494.039 222.529 493.964 222.721 493.813 222.883C493.667 223.039 493.456 223.117 493.18 223.117C492.898 223.117 492.685 223.039 492.539 222.883C492.398 222.721 492.328 222.529 492.328 222.305ZM495.828 228.867V228.687C495.828 228.078 495.917 227.513 496.094 226.992C496.271 226.466 496.526 226.01 496.859 225.625C497.193 225.234 497.596 224.932 498.07 224.719C498.544 224.5 499.076 224.391 499.664 224.391C500.258 224.391 500.792 224.5 501.266 224.719C501.745 224.932 502.151 225.234 502.484 225.625C502.823 226.01 503.081 226.466 503.258 226.992C503.435 227.513 503.523 228.078 503.523 228.687V228.867C503.523 229.477 503.435 230.042 503.258 230.562C503.081 231.083 502.823 231.539 502.484 231.93C502.151 232.315 501.747 232.617 501.273 232.836C500.805 233.049 500.273 233.156 499.68 233.156C499.086 233.156 498.552 233.049 498.078 232.836C497.604 232.617 497.198 232.315 496.859 231.93C496.526 231.539 496.271 231.083 496.094 230.562C495.917 230.042 495.828 229.477 495.828 228.867ZM497.273 228.687V228.867C497.273 229.289 497.323 229.687 497.422 230.062C497.521 230.432 497.669 230.76 497.867 231.047C498.07 231.333 498.323 231.56 498.625 231.727C498.927 231.888 499.279 231.969 499.68 231.969C500.076 231.969 500.422 231.888 500.719 231.727C501.021 231.56 501.271 231.333 501.469 231.047C501.667 230.76 501.815 230.432 501.914 230.062C502.018 229.687 502.07 229.289 502.07 228.867V228.687C502.07 228.271 502.018 227.878 501.914 227.508C501.815 227.133 501.664 226.802 501.461 226.516C501.263 226.224 501.013 225.995 500.711 225.828C500.414 225.661 500.065 225.578 499.664 225.578C499.268 225.578 498.919 225.661 498.617 225.828C498.32 225.995 498.07 226.224 497.867 226.516C497.669 226.802 497.521 227.133 497.422 227.508C497.323 227.878 497.273 228.271 497.273 228.687Z" fill="#E1E1E6"/>
<path d="M550.07 205.68C550.07 206.794 549.883 207.768 549.508 208.602C549.133 209.43 548.602 210.062 547.914 210.5C547.227 210.938 546.424 211.156 545.508 211.156C544.612 211.156 543.818 210.938 543.125 210.5C542.432 210.057 541.893 209.43 541.508 208.617C541.128 207.799 540.932 206.854 540.922 205.781V204.961C540.922 203.867 541.112 202.901 541.492 202.062C541.872 201.224 542.409 200.583 543.102 200.141C543.799 199.693 544.596 199.469 545.492 199.469C546.404 199.469 547.206 199.69 547.898 200.133C548.596 200.57 549.133 201.208 549.508 202.047C549.883 202.88 550.07 203.852 550.07 204.961V205.68ZM548.578 204.945C548.578 203.596 548.307 202.562 547.766 201.844C547.224 201.12 546.466 200.758 545.492 200.758C544.544 200.758 543.797 201.12 543.25 201.844C542.708 202.562 542.43 203.562 542.414 204.844V205.68C542.414 206.987 542.688 208.016 543.234 208.766C543.786 209.51 544.544 209.883 545.508 209.883C546.477 209.883 547.227 209.531 547.758 208.828C548.289 208.12 548.562 207.107 548.578 205.789V204.945ZM553.461 202.547L553.508 203.609C554.154 202.797 554.997 202.391 556.039 202.391C557.826 202.391 558.727 203.398 558.742 205.414V211H557.297V205.406C557.292 204.797 557.151 204.346 556.875 204.055C556.604 203.763 556.18 203.617 555.602 203.617C555.133 203.617 554.721 203.742 554.367 203.992C554.013 204.242 553.737 204.57 553.539 204.977V211H552.094V202.547H553.461ZM562.492 211H561.047V199H562.492V211ZM566.383 211H564.938V202.547H566.383V211ZM564.82 200.305C564.82 200.07 564.891 199.872 565.031 199.711C565.177 199.549 565.391 199.469 565.672 199.469C565.953 199.469 566.167 199.549 566.312 199.711C566.458 199.872 566.531 200.07 566.531 200.305C566.531 200.539 566.458 200.734 566.312 200.891C566.167 201.047 565.953 201.125 565.672 201.125C565.391 201.125 565.177 201.047 565.031 200.891C564.891 200.734 564.82 200.539 564.82 200.305ZM570.07 202.547L570.117 203.609C570.763 202.797 571.607 202.391 572.648 202.391C574.435 202.391 575.336 203.398 575.352 205.414V211H573.906V205.406C573.901 204.797 573.76 204.346 573.484 204.055C573.214 203.763 572.789 203.617 572.211 203.617C571.742 203.617 571.331 203.742 570.977 203.992C570.622 204.242 570.346 204.57 570.148 204.977V211H568.703V202.547H570.07ZM581.039 211.156C579.893 211.156 578.961 210.781 578.242 210.031C577.523 209.276 577.164 208.268 577.164 207.008V206.742C577.164 205.904 577.323 205.156 577.641 204.5C577.964 203.839 578.411 203.323 578.984 202.953C579.562 202.578 580.188 202.391 580.859 202.391C581.958 202.391 582.812 202.753 583.422 203.477C584.031 204.201 584.336 205.237 584.336 206.586V207.187L578.609 207.187C578.63 208.021 578.872 208.695 579.336 209.211C579.805 209.721 580.398 209.977 581.117 209.977C581.628 209.977 582.06 209.872 582.414 209.664C582.768 209.456 583.078 209.18 583.344 208.836L584.227 209.523C583.518 210.612 582.456 211.156 581.039 211.156ZM580.859 203.578C580.276 203.578 579.786 203.792 579.391 204.219C578.995 204.641 578.75 205.234 578.656 206L582.891 206V205.891C582.849 205.156 582.651 204.589 582.297 204.187C581.943 203.781 581.464 203.578 580.859 203.578ZM544.602 233.156C543.456 233.156 542.523 232.781 541.805 232.031C541.086 231.276 540.727 230.268 540.727 229.008V228.742C540.727 227.904 540.885 227.156 541.203 226.5C541.526 225.839 541.974 225.323 542.547 224.953C543.125 224.578 543.75 224.391 544.422 224.391C545.521 224.391 546.375 224.753 546.984 225.477C547.594 226.201 547.898 227.237 547.898 228.586V229.188H542.172C542.193 230.021 542.435 230.695 542.898 231.211C543.367 231.721 543.961 231.977 544.68 231.977C545.19 231.977 545.622 231.872 545.977 231.664C546.331 231.456 546.641 231.18 546.906 230.836L547.789 231.523C547.081 232.612 546.018 233.156 544.602 233.156ZM544.422 225.578C543.839 225.578 543.349 225.792 542.953 226.219C542.557 226.641 542.312 227.234 542.219 228H546.453V227.891C546.411 227.156 546.214 226.589 545.859 226.188C545.505 225.781 545.026 225.578 544.422 225.578ZM553.203 228.703C553.203 227.385 553.508 226.339 554.117 225.562C554.727 224.781 555.534 224.391 556.539 224.391C557.57 224.391 558.375 224.755 558.953 225.484L559.023 224.547H560.344L560.344 232.797C560.344 233.891 560.018 234.753 559.367 235.383C558.721 236.013 557.852 236.328 556.758 236.328C556.148 236.328 555.552 236.198 554.969 235.937C554.385 235.677 553.94 235.32 553.633 234.867L554.383 234C555.003 234.766 555.76 235.148 556.656 235.148C557.359 235.148 557.906 234.951 558.297 234.555C558.693 234.159 558.891 233.602 558.891 232.883V232.156C558.313 232.823 557.523 233.156 556.523 233.156C555.534 233.156 554.732 232.758 554.117 231.961C553.508 231.164 553.203 230.078 553.203 228.703ZM554.656 228.867C554.656 229.82 554.852 230.57 555.242 231.117C555.633 231.659 556.18 231.93 556.883 231.93C557.794 231.93 558.464 231.516 558.891 230.687L558.891 226.828C558.448 226.021 557.784 225.617 556.898 225.617C556.195 225.617 555.646 225.891 555.25 226.437C554.854 226.984 554.656 227.794 554.656 228.867ZM566.617 225.844C566.398 225.807 566.161 225.789 565.906 225.789C564.958 225.789 564.315 226.193 563.977 227L563.977 233L562.531 233L562.531 224.547L563.938 224.547L563.961 225.523C564.435 224.768 565.107 224.391 565.977 224.391C566.258 224.391 566.471 224.427 566.617 224.5V225.844ZM572.859 233C572.776 232.833 572.708 232.536 572.656 232.109C571.984 232.807 571.182 233.156 570.25 233.156C569.417 233.156 568.732 232.922 568.195 232.453C567.664 231.979 567.398 231.38 567.398 230.656C567.398 229.776 567.732 229.094 568.398 228.609C569.07 228.12 570.013 227.875 571.227 227.875H572.633V227.211C572.633 226.706 572.482 226.305 572.18 226.008C571.878 225.706 571.432 225.555 570.844 225.555C570.328 225.555 569.896 225.685 569.547 225.945C569.198 226.206 569.023 226.521 569.023 226.891H567.57C567.57 226.469 567.719 226.062 568.016 225.672C568.318 225.276 568.724 224.964 569.234 224.734C569.75 224.505 570.315 224.391 570.93 224.391C571.904 224.391 572.667 224.635 573.219 225.125C573.771 225.609 574.057 226.279 574.078 227.133L574.078 231.023C574.078 231.799 574.177 232.417 574.375 232.875V233H572.859ZM570.461 231.898C570.914 231.898 571.344 231.781 571.75 231.547C572.156 231.312 572.451 231.008 572.633 230.633L572.633 228.898H571.5C569.729 228.898 568.844 229.417 568.844 230.453C568.844 230.906 568.995 231.26 569.297 231.516C569.599 231.771 569.987 231.898 570.461 231.898ZM578.305 222.5V224.547H579.883V225.664H578.305L578.305 230.906C578.305 231.245 578.375 231.5 578.516 231.672C578.656 231.839 578.896 231.922 579.234 231.922C579.401 231.922 579.63 231.891 579.922 231.828V233C579.542 233.104 579.172 233.156 578.813 233.156C578.167 233.156 577.68 232.961 577.352 232.57C577.023 232.18 576.859 231.625 576.859 230.906L576.859 225.664H575.32V224.547H576.859V222.5H578.305ZM586.797 232.164C586.234 232.826 585.409 233.156 584.32 233.156C583.419 233.156 582.732 232.896 582.258 232.375C581.789 231.849 581.552 231.073 581.547 230.047V224.547L582.992 224.547V230.008C582.992 231.289 583.513 231.93 584.555 231.93C585.659 231.93 586.393 231.518 586.758 230.695L586.758 224.547H588.203L588.203 233H586.828L586.797 232.164ZM591.977 233H590.531L590.531 224.547H591.977L591.977 233ZM590.414 222.305C590.414 222.07 590.484 221.872 590.625 221.711C590.771 221.549 590.984 221.469 591.266 221.469C591.547 221.469 591.76 221.549 591.906 221.711C592.052 221.872 592.125 222.07 592.125 222.305C592.125 222.539 592.052 222.734 591.906 222.891C591.76 223.047 591.547 223.125 591.266 223.125C590.984 223.125 590.771 223.047 590.625 222.891C590.484 222.734 590.414 222.539 590.414 222.305ZM596.258 222.5V224.547L597.836 224.547V225.664L596.258 225.664L596.258 230.906C596.258 231.245 596.328 231.5 596.469 231.672C596.609 231.839 596.849 231.922 597.188 231.922C597.354 231.922 597.583 231.891 597.875 231.828V233C597.495 233.104 597.125 233.156 596.766 233.156C596.12 233.156 595.633 232.961 595.305 232.57C594.977 232.18 594.813 231.625 594.813 230.906L594.812 225.664H593.273V224.547H594.812V222.5H596.258ZM598.992 228.695C598.992 227.867 599.154 227.122 599.477 226.461C599.805 225.799 600.258 225.289 600.836 224.93C601.419 224.57 602.083 224.391 602.828 224.391C603.979 224.391 604.909 224.789 605.617 225.586C606.331 226.383 606.688 227.443 606.688 228.766V228.867C606.688 229.69 606.529 230.43 606.211 231.086C605.898 231.737 605.448 232.245 604.859 232.609C604.276 232.974 603.604 233.156 602.844 233.156C601.698 233.156 600.768 232.758 600.055 231.961C599.346 231.164 598.992 230.109 598.992 228.797V228.695ZM600.445 228.867C600.445 229.805 600.661 230.557 601.094 231.125C601.531 231.693 602.115 231.977 602.844 231.977C603.578 231.977 604.161 231.69 604.594 231.117C605.026 230.539 605.242 229.732 605.242 228.695C605.242 227.768 605.021 227.018 604.578 226.445C604.141 225.867 603.557 225.578 602.828 225.578C602.115 225.578 601.539 225.862 601.102 226.43C600.664 226.997 600.445 227.81 600.445 228.867Z" fill="#E1E1E6"/>
<g filter="url(#filter0_b_7156_17660)">
<path d="M589 39.947C590.182 39.947 591.077 40.4543 591.685 41.469C592.303 42.4725 592.613 43.9331 592.613 45.8509C592.613 47.7687 592.303 49.2349 591.685 50.2496C591.077 51.2642 590.182 51.7715 589 51.7715C587.829 51.7715 586.934 51.2642 586.315 50.2496C585.697 49.2349 585.387 47.7687 585.387 45.8509C585.387 43.9442 585.697 42.4836 586.315 41.469C586.934 40.4543 587.829 39.947 589 39.947ZM586.564 45.8509C586.564 47.2112 586.686 48.276 586.929 49.0454L590.607 41.6362C590.221 41.1122 589.685 40.8501 589 40.8501C588.238 40.8501 587.641 41.2627 587.21 42.0878C586.779 42.9017 586.564 44.1561 586.564 45.8509ZM589 50.8516C589.773 50.8516 590.375 50.4447 590.806 49.6307C591.237 48.8056 591.453 47.5457 591.453 45.8509C591.453 44.4125 591.314 43.2976 591.038 42.5059L587.359 49.982C587.757 50.5618 588.304 50.8516 589 50.8516Z" fill="url(#paint2_linear_7156_17660)" fill-opacity="0.5"/>
<path d="M589.994 69.8321H592.43V70.7185H586.117V69.8321H588.934V60.4327L586.249 62.055L585.785 61.3024L589.099 59.2285H589.994V69.8321Z" fill="url(#paint3_linear_7156_17660)" fill-opacity="0.5"/>
<path d="M589 78.1754C590.182 78.1754 591.077 78.6828 591.685 79.6974C592.303 80.7009 592.613 82.1616 592.613 84.0794C592.613 85.9972 592.303 87.4634 591.685 88.478C591.077 89.4927 590.182 90 589 90C587.829 90 586.934 89.4927 586.315 88.478C585.697 87.4634 585.387 85.9972 585.387 84.0794C585.387 82.1727 585.697 80.7121 586.315 79.6974C586.934 78.6828 587.829 78.1754 589 78.1754ZM586.564 84.0794C586.564 85.4397 586.686 86.5045 586.929 87.2738L590.607 79.8647C590.221 79.3406 589.685 79.0786 589 79.0786C588.238 79.0786 587.641 79.4911 587.21 80.3162C586.779 81.1302 586.564 82.3846 586.564 84.0794ZM589 89.0801C589.773 89.0801 590.375 88.6732 590.806 87.8592C591.237 87.0341 591.453 85.7742 591.453 84.0794C591.453 82.641 591.314 81.526 591.038 80.7344L587.359 88.2104C587.757 88.7902 588.304 89.0801 589 89.0801Z" fill="url(#paint4_linear_7156_17660)" fill-opacity="0.5"/>
<path d="M574.607 50.7179H577.043V51.6043H570.729V50.7179H573.546V41.3184L570.862 42.9407L570.398 42.1881L573.712 40.1142H574.607V50.7179Z" fill="url(#paint5_linear_7156_17660)" fill-opacity="0.5"/>
<path d="M573.613 59.0612C574.795 59.0612 575.689 59.5685 576.297 60.5832C576.916 61.5867 577.225 63.0473 577.225 64.9651C577.225 66.8829 576.916 68.3491 576.297 69.3638C575.689 70.3784 574.795 70.8858 573.613 70.8858C572.441 70.8858 571.547 70.3784 570.928 69.3638C570.309 68.3491 570 66.8829 570 64.9651C570 63.0585 570.309 61.5978 570.928 60.5832C571.547 59.5685 572.441 59.0612 573.613 59.0612ZM571.177 64.9651C571.177 66.3254 571.298 67.3902 571.541 68.1596L575.22 60.7504C574.833 60.2264 574.297 59.9644 573.613 59.9644C572.85 59.9644 572.254 60.3769 571.823 61.202C571.392 62.016 571.177 63.2703 571.177 64.9651ZM573.613 69.9659C574.386 69.9659 574.988 69.5589 575.419 68.745C575.85 67.9199 576.065 66.6599 576.065 64.9651C576.065 63.5268 575.927 62.4118 575.651 61.6201L571.972 69.0962C572.37 69.676 572.917 69.9659 573.613 69.9659Z" fill="url(#paint6_linear_7156_17660)" fill-opacity="0.5"/>
<path d="M574.607 88.9463H577.043V89.8327H570.729V88.9463H573.546V79.5469L570.862 81.1692L570.398 80.4166L573.712 78.3427H574.607V88.9463Z" fill="url(#paint7_linear_7156_17660)" fill-opacity="0.5"/>
<path d="M605.382 31.6036H607.818V32.49H601.504V31.6036H604.321V22.2042L601.637 23.8265L601.173 23.0739L604.487 21H605.382V31.6036Z" fill="url(#paint8_linear_7156_17660)" fill-opacity="0.5"/>
<path d="M604.387 39.947C605.57 39.947 606.464 40.4543 607.072 41.469C607.691 42.4725 608 43.9331 608 45.8509C608 47.7687 607.691 49.2349 607.072 50.2496C606.464 51.2642 605.57 51.7715 604.387 51.7715C603.216 51.7715 602.322 51.2642 601.703 50.2496C601.084 49.2349 600.775 47.7687 600.775 45.8509C600.775 43.9442 601.084 42.4836 601.703 41.469C602.322 40.4543 603.216 39.947 604.387 39.947ZM601.952 45.8509C601.952 47.2112 602.073 48.276 602.316 49.0454L605.995 41.6362C605.608 41.1122 605.072 40.8501 604.387 40.8501C603.625 40.8501 603.029 41.2627 602.598 42.0878C602.167 42.9017 601.952 44.1561 601.952 45.8509ZM604.387 50.8516C605.161 50.8516 605.763 50.4447 606.194 49.6307C606.625 48.8056 606.84 47.5457 606.84 45.8509C606.84 44.4125 606.702 43.2976 606.426 42.5059L602.747 49.982C603.145 50.5618 603.692 50.8516 604.387 50.8516Z" fill="url(#paint9_linear_7156_17660)" fill-opacity="0.5"/>
<path d="M605.382 69.8321H607.818V70.7185H601.504V69.8321H604.321V60.4327L601.637 62.055L601.173 61.3024L604.487 59.2285H605.382V69.8321Z" fill="url(#paint10_linear_7156_17660)" fill-opacity="0.5"/>
<path d="M589.38 31.6036H591.816V32.49H585.502V31.6036H588.319V22.2042L585.635 23.8265L585.171 23.0739L588.485 21H589.38V31.6036Z" fill="url(#paint11_linear_7156_17660)" fill-opacity="0.5"/>
</g>
<path fill-rule="evenodd" clip-rule="evenodd" d="M283.271 62.775C285.094 64.8183 286.052 67.512 285.938 70.2713V85.3126H279.546V71.6551C279.609 70.1301 279.124 68.6339 278.181 67.448C277.743 66.9263 277.194 66.513 276.576 66.2395C275.958 65.966 275.286 65.8395 274.613 65.8695C270.624 65.8695 268.63 68.7044 268.63 74.3741V85.3126H262.203V60.6193H268.63V62.8515C269.636 61.8539 270.832 61.0761 272.143 60.5655C273.455 60.055 274.855 59.8225 276.257 59.8822C277.561 59.8299 278.86 60.0607 280.069 60.5595C281.279 61.0582 282.37 61.8135 283.271 62.775V62.775Z" fill="white"/>
<path fill-rule="evenodd" clip-rule="evenodd" d="M294.098 50V85.3118H300.504V50H294.098Z" fill="white"/>
<path fill-rule="evenodd" clip-rule="evenodd" d="M336.719 85.3122H331.397L326.157 70.7647L320.863 85.3122H315.501L306.516 60.5703H313.338L318.434 75.3682L323.64 60.5703H328.634L333.839 75.4169L338.888 60.5703H345.71L336.719 85.3122Z" fill="white"/>
<path d="M249.646 85.9366L240.292 92.2994L219.266 80.8464L228.483 74.5879L238.409 79.998C238.409 77.8354 238.409 72.5713 238.409 67.8426L249.632 60.1934C249.632 64.8942 249.632 76.5628 249.646 85.9366Z" fill="#8257E5"/>
<path d="M232.467 71.9383L222.234 66.3752C222.234 68.5935 222.234 74.094 222.234 78.8922C217.949 81.8198 214.115 84.4205 212 85.8461C212 81.0827 212 69.1568 212 59.7343L221.04 53.5801L242.38 65.207L232.467 71.9383Z" fill="#8257E5"/>
<path fill-rule="evenodd" clip-rule="evenodd" d="M405.628 76.0496V52.6289H411.332V61.1891H423.564V66.4671H411.332V76.0496C411.332 79.2762 412.962 80.5418 415.316 80.5418C417.67 80.5418 419.294 79.3249 419.294 76.0496V75.4098H425.004V76.0496C425.004 82.7462 421.067 85.9728 415.316 85.9728C409.565 85.9728 405.628 82.7462 405.628 76.0496ZM363.998 60.5497C357.817 60.5497 353.594 64.0197 353.594 71.3073L353.607 85.3333H359.311V71.3143C359.311 67.3784 361.228 65.9876 364.012 65.9876C366.795 65.9876 368.712 67.3993 368.712 71.3143V71.5577H374.375V71.4047C374.375 64.0197 370.179 60.5497 363.998 60.5497ZM389.226 60.5497C381.742 60.5497 376.468 65.925 376.468 73.2614C376.468 80.5977 381.742 85.9731 389.226 85.9731C394.834 85.9731 399.153 82.9899 400.926 78.3934H394.834C393.633 79.958 391.764 80.6881 389.226 80.6881C385.876 80.6881 383.229 78.8314 382.465 75.3128H401.888V73.2614C401.888 65.925 396.71 60.5497 389.226 60.5497ZM389.226 65.7999C392.344 65.7999 394.929 67.441 395.844 70.6676H382.608C383.516 67.4618 386.108 65.7999 389.226 65.7999ZM428.648 61.189V73.7477C428.648 81.8629 433.349 85.9727 440.348 85.9727C447.348 85.9727 452.049 81.8142 452.049 73.7477V61.189H446.345V73.7477C446.345 78.3442 443.944 80.5417 440.348 80.5417C436.753 80.5417 434.351 78.3442 434.351 73.7477V61.189H428.648ZM456.748 71.3073C456.748 64.0197 460.971 60.5497 467.152 60.5497C473.333 60.5497 477.515 64.0266 477.515 71.4047V71.5577H471.853V71.3143C471.853 67.3854 469.935 65.9946 467.159 65.9946C464.382 65.9946 462.458 67.3854 462.458 71.3213V85.3333H456.755L456.748 71.3073ZM492.287 60.5497C485.28 60.5497 480.579 64.7081 480.579 72.7746L480.552 85.3333H486.263V72.7746C486.263 68.1781 488.705 65.9807 492.3 65.9807C495.896 65.9807 498.29 68.1781 498.29 72.7746V85.3323H498.285V89.1917C498.292 90.2634 498.09 91.3258 497.693 92.318C497.296 93.3102 496.71 94.2127 495.97 94.9738C495.229 95.7348 494.349 96.3394 493.379 96.7529C492.409 97.1664 491.368 97.3806 490.317 97.3834H471.456L475.702 93.0515L472.072 89.352L463.271 98.3225V102.029L472.072 110.999L475.702 107.293L471.624 103.141H490.296C493.929 103.143 497.413 101.675 499.983 99.0588C502.553 96.4429 503.999 92.8938 504.003 89.1917V85.3323H504.001V72.7746C504.001 64.6594 499.293 60.5497 492.287 60.5497Z" fill="url(#paint12_linear_7156_17660)"/>
<path d="M215.129 207.938H218.105L222.488 220.465L226.871 207.938H229.848L223.684 225H221.293L215.129 207.938ZM213.523 207.938H216.488L217.027 220.148V225H213.523V207.938ZM228.488 207.938H231.465V225H227.949V220.148L228.488 207.938ZM237.898 212.32V225H234.512V212.32H237.898ZM234.301 209.016C234.301 208.523 234.473 208.117 234.816 207.797C235.16 207.477 235.621 207.316 236.199 207.316C236.77 207.316 237.227 207.477 237.57 207.797C237.922 208.117 238.098 208.523 238.098 209.016C238.098 209.508 237.922 209.914 237.57 210.234C237.227 210.555 236.77 210.715 236.199 210.715C235.621 210.715 235.16 210.555 234.816 210.234C234.473 209.914 234.301 209.508 234.301 209.016ZM247.543 221.496C247.543 221.254 247.473 221.035 247.332 220.84C247.191 220.645 246.93 220.465 246.547 220.301C246.172 220.129 245.629 219.973 244.918 219.832C244.277 219.691 243.68 219.516 243.125 219.305C242.578 219.086 242.102 218.824 241.695 218.52C241.297 218.215 240.984 217.855 240.758 217.441C240.531 217.02 240.418 216.539 240.418 216C240.418 215.469 240.531 214.969 240.758 214.5C240.992 214.031 241.324 213.617 241.754 213.258C242.191 212.891 242.723 212.605 243.348 212.402C243.98 212.191 244.691 212.086 245.48 212.086C246.582 212.086 247.527 212.262 248.316 212.613C249.113 212.965 249.723 213.449 250.145 214.066C250.574 214.676 250.789 215.371 250.789 216.152H247.414C247.414 215.824 247.344 215.531 247.203 215.273C247.07 215.008 246.859 214.801 246.57 214.652C246.289 214.496 245.922 214.418 245.469 214.418C245.094 214.418 244.77 214.484 244.496 214.617C244.223 214.742 244.012 214.914 243.863 215.133C243.723 215.344 243.652 215.578 243.652 215.836C243.652 216.031 243.691 216.207 243.77 216.363C243.855 216.512 243.992 216.648 244.18 216.773C244.367 216.898 244.609 217.016 244.906 217.125C245.211 217.227 245.586 217.32 246.031 217.406C246.945 217.594 247.762 217.84 248.48 218.145C249.199 218.441 249.77 218.848 250.191 219.363C250.613 219.871 250.824 220.539 250.824 221.367C250.824 221.93 250.699 222.445 250.449 222.914C250.199 223.383 249.84 223.793 249.371 224.145C248.902 224.488 248.34 224.758 247.684 224.953C247.035 225.141 246.305 225.234 245.492 225.234C244.312 225.234 243.312 225.023 242.492 224.602C241.68 224.18 241.062 223.645 240.641 222.996C240.227 222.34 240.02 221.668 240.02 220.98H243.219C243.234 221.441 243.352 221.812 243.57 222.094C243.797 222.375 244.082 222.578 244.426 222.703C244.777 222.828 245.156 222.891 245.562 222.891C246 222.891 246.363 222.832 246.652 222.715C246.941 222.59 247.16 222.426 247.309 222.223C247.465 222.012 247.543 221.77 247.543 221.496ZM259.871 221.496C259.871 221.254 259.801 221.035 259.66 220.84C259.52 220.645 259.258 220.465 258.875 220.301C258.5 220.129 257.957 219.973 257.246 219.832C256.605 219.691 256.008 219.516 255.453 219.305C254.906 219.086 254.43 218.824 254.023 218.52C253.625 218.215 253.312 217.855 253.086 217.441C252.859 217.02 252.746 216.539 252.746 216C252.746 215.469 252.859 214.969 253.086 214.5C253.32 214.031 253.652 213.617 254.082 213.258C254.52 212.891 255.051 212.605 255.676 212.402C256.309 212.191 257.02 212.086 257.809 212.086C258.91 212.086 259.855 212.262 260.645 212.613C261.441 212.965 262.051 213.449 262.473 214.066C262.902 214.676 263.117 215.371 263.117 216.152H259.742C259.742 215.824 259.672 215.531 259.531 215.273C259.398 215.008 259.188 214.801 258.898 214.652C258.617 214.496 258.25 214.418 257.797 214.418C257.422 214.418 257.098 214.484 256.824 214.617C256.551 214.742 256.34 214.914 256.191 215.133C256.051 215.344 255.98 215.578 255.98 215.836C255.98 216.031 256.02 216.207 256.098 216.363C256.184 216.512 256.32 216.648 256.508 216.773C256.695 216.898 256.938 217.016 257.234 217.125C257.539 217.227 257.914 217.32 258.359 217.406C259.273 217.594 260.09 217.84 260.809 218.145C261.527 218.441 262.098 218.848 262.52 219.363C262.941 219.871 263.152 220.539 263.152 221.367C263.152 221.93 263.027 222.445 262.777 222.914C262.527 223.383 262.168 223.793 261.699 224.145C261.23 224.488 260.668 224.758 260.012 224.953C259.363 225.141 258.633 225.234 257.82 225.234C256.641 225.234 255.641 225.023 254.82 224.602C254.008 224.18 253.391 223.645 252.969 222.996C252.555 222.34 252.348 221.668 252.348 220.98H255.547C255.562 221.441 255.68 221.812 255.898 222.094C256.125 222.375 256.41 222.578 256.754 222.703C257.105 222.828 257.484 222.891 257.891 222.891C258.328 222.891 258.691 222.832 258.98 222.715C259.27 222.59 259.488 222.426 259.637 222.223C259.793 222.012 259.871 221.77 259.871 221.496ZM268.906 212.32V225H265.52V212.32H268.906ZM265.309 209.016C265.309 208.523 265.48 208.117 265.824 207.797C266.168 207.477 266.629 207.316 267.207 207.316C267.777 207.316 268.234 207.477 268.578 207.797C268.93 208.117 269.105 208.523 269.105 209.016C269.105 209.508 268.93 209.914 268.578 210.234C268.234 210.555 267.777 210.715 267.207 210.715C266.629 210.715 266.168 210.555 265.824 210.234C265.48 209.914 265.309 209.508 265.309 209.016ZM271.156 218.789V218.543C271.156 217.613 271.289 216.758 271.555 215.977C271.82 215.188 272.207 214.504 272.715 213.926C273.223 213.348 273.848 212.898 274.59 212.578C275.332 212.25 276.184 212.086 277.145 212.086C278.105 212.086 278.961 212.25 279.711 212.578C280.461 212.898 281.09 213.348 281.598 213.926C282.113 214.504 282.504 215.188 282.77 215.977C283.035 216.758 283.168 217.613 283.168 218.543V218.789C283.168 219.711 283.035 220.566 282.77 221.355C282.504 222.137 282.113 222.82 281.598 223.406C281.09 223.984 280.465 224.434 279.723 224.754C278.98 225.074 278.129 225.234 277.168 225.234C276.207 225.234 275.352 225.074 274.602 224.754C273.859 224.434 273.23 223.984 272.715 223.406C272.207 222.82 271.82 222.137 271.555 221.355C271.289 220.566 271.156 219.711 271.156 218.789ZM274.531 218.543V218.789C274.531 219.32 274.578 219.816 274.672 220.277C274.766 220.738 274.914 221.145 275.117 221.496C275.328 221.84 275.602 222.109 275.938 222.305C276.273 222.5 276.684 222.598 277.168 222.598C277.637 222.598 278.039 222.5 278.375 222.305C278.711 222.109 278.98 221.84 279.184 221.496C279.387 221.145 279.535 220.738 279.629 220.277C279.73 219.816 279.781 219.32 279.781 218.789V218.543C279.781 218.027 279.73 217.543 279.629 217.09C279.535 216.629 279.383 216.223 279.172 215.871C278.969 215.512 278.699 215.23 278.363 215.027C278.027 214.824 277.621 214.723 277.145 214.723C276.668 214.723 276.262 214.824 275.926 215.027C275.598 215.23 275.328 215.512 275.117 215.871C274.914 216.223 274.766 216.629 274.672 217.09C274.578 217.543 274.531 218.027 274.531 218.543ZM288.547 215.027V225H285.172V212.32H288.336L288.547 215.027ZM288.055 218.215H287.141C287.141 217.277 287.262 216.434 287.504 215.684C287.746 214.926 288.086 214.281 288.523 213.75C288.961 213.211 289.48 212.801 290.082 212.52C290.691 212.23 291.371 212.086 292.121 212.086C292.715 212.086 293.258 212.172 293.75 212.344C294.242 212.516 294.664 212.789 295.016 213.164C295.375 213.539 295.648 214.035 295.836 214.652C296.031 215.27 296.129 216.023 296.129 216.914V225H292.73V216.902C292.73 216.34 292.652 215.902 292.496 215.59C292.34 215.277 292.109 215.059 291.805 214.934C291.508 214.801 291.141 214.734 290.703 214.734C290.25 214.734 289.855 214.824 289.52 215.004C289.191 215.184 288.918 215.434 288.699 215.754C288.488 216.066 288.328 216.434 288.219 216.855C288.109 217.277 288.055 217.73 288.055 218.215ZM298.824 223.371C298.824 222.871 298.996 222.453 299.34 222.117C299.691 221.781 300.156 221.613 300.734 221.613C301.312 221.613 301.773 221.781 302.117 222.117C302.469 222.453 302.645 222.871 302.645 223.371C302.645 223.871 302.469 224.289 302.117 224.625C301.773 224.961 301.312 225.129 300.734 225.129C300.156 225.129 299.691 224.961 299.34 224.625C298.996 224.289 298.824 223.871 298.824 223.371ZM298.824 213.703C298.824 213.203 298.996 212.785 299.34 212.449C299.691 212.113 300.156 211.945 300.734 211.945C301.312 211.945 301.773 212.113 302.117 212.449C302.469 212.785 302.645 213.203 302.645 213.703C302.645 214.203 302.469 214.621 302.117 214.957C301.773 215.293 301.312 215.461 300.734 215.461C300.156 215.461 299.691 215.293 299.34 214.957C298.996 214.621 298.824 214.203 298.824 213.703Z" fill="#E1E1E6"/>
<path d="M325.672 216.07V216.879C325.672 218.176 325.496 219.34 325.145 220.371C324.793 221.402 324.297 222.281 323.656 223.008C323.016 223.727 322.25 224.277 321.359 224.66C320.477 225.043 319.496 225.234 318.418 225.234C317.348 225.234 316.367 225.043 315.477 224.66C314.594 224.277 313.828 223.727 313.18 223.008C312.531 222.281 312.027 221.402 311.668 220.371C311.316 219.34 311.141 218.176 311.141 216.879V216.07C311.141 214.766 311.316 213.602 311.668 212.578C312.02 211.547 312.516 210.668 313.156 209.941C313.805 209.215 314.57 208.66 315.453 208.277C316.344 207.895 317.324 207.703 318.395 207.703C319.473 207.703 320.453 207.895 321.336 208.277C322.227 208.66 322.992 209.215 323.633 209.941C324.281 210.668 324.781 211.547 325.133 212.578C325.492 213.602 325.672 214.766 325.672 216.07ZM322.121 216.879V216.047C322.121 215.141 322.039 214.344 321.875 213.656C321.711 212.969 321.469 212.391 321.148 211.922C320.828 211.453 320.438 211.102 319.977 210.867C319.516 210.625 318.988 210.504 318.395 210.504C317.801 210.504 317.273 210.625 316.812 210.867C316.359 211.102 315.973 211.453 315.652 211.922C315.34 212.391 315.102 212.969 314.938 213.656C314.773 214.344 314.691 215.141 314.691 216.047V216.879C314.691 217.777 314.773 218.574 314.938 219.27C315.102 219.957 315.344 220.539 315.664 221.016C315.984 221.484 316.375 221.84 316.836 222.082C317.297 222.324 317.824 222.445 318.418 222.445C319.012 222.445 319.539 222.324 320 222.082C320.461 221.84 320.848 221.484 321.16 221.016C321.473 220.539 321.711 219.957 321.875 219.27C322.039 218.574 322.121 217.777 322.121 216.879ZM331.367 215.086V225H327.992V212.32H331.168L331.367 215.086ZM335.188 212.238L335.129 215.367C334.965 215.344 334.766 215.324 334.531 215.309C334.305 215.285 334.098 215.273 333.91 215.273C333.434 215.273 333.02 215.336 332.668 215.461C332.324 215.578 332.035 215.754 331.801 215.988C331.574 216.223 331.402 216.508 331.285 216.844C331.176 217.18 331.113 217.562 331.098 217.992L330.418 217.781C330.418 216.961 330.5 216.207 330.664 215.52C330.828 214.824 331.066 214.219 331.379 213.703C331.699 213.188 332.09 212.789 332.551 212.508C333.012 212.227 333.539 212.086 334.133 212.086C334.32 212.086 334.512 212.102 334.707 212.133C334.902 212.156 335.062 212.191 335.188 212.238ZM340.344 212.32V225H336.957V212.32H340.344ZM336.746 209.016C336.746 208.523 336.918 208.117 337.262 207.797C337.605 207.477 338.066 207.316 338.645 207.316C339.215 207.316 339.672 207.477 340.016 207.797C340.367 208.117 340.543 208.523 340.543 209.016C340.543 209.508 340.367 209.914 340.016 210.234C339.672 210.555 339.215 210.715 338.645 210.715C338.066 210.715 337.605 210.555 337.262 210.234C336.918 209.914 336.746 209.508 336.746 209.016ZM351.16 212.32H354.219V224.578C354.219 225.734 353.961 226.715 353.445 227.52C352.938 228.332 352.227 228.945 351.312 229.359C350.398 229.781 349.336 229.992 348.125 229.992C347.594 229.992 347.031 229.922 346.438 229.781C345.852 229.641 345.289 229.422 344.75 229.125C344.219 228.828 343.773 228.453 343.414 228L344.902 226.008C345.293 226.461 345.746 226.812 346.262 227.062C346.777 227.32 347.348 227.449 347.973 227.449C348.582 227.449 349.098 227.336 349.52 227.109C349.941 226.891 350.266 226.566 350.492 226.137C350.719 225.715 350.832 225.203 350.832 224.602V215.25L351.16 212.32ZM342.629 218.812V218.566C342.629 217.598 342.746 216.719 342.98 215.93C343.223 215.133 343.562 214.449 344 213.879C344.445 213.309 344.984 212.867 345.617 212.555C346.25 212.242 346.965 212.086 347.762 212.086C348.605 212.086 349.312 212.242 349.883 212.555C350.453 212.867 350.922 213.312 351.289 213.891C351.656 214.461 351.941 215.137 352.145 215.918C352.355 216.691 352.52 217.539 352.637 218.461V219C352.52 219.883 352.344 220.703 352.109 221.461C351.875 222.219 351.566 222.883 351.184 223.453C350.801 224.016 350.324 224.453 349.754 224.766C349.191 225.078 348.52 225.234 347.738 225.234C346.957 225.234 346.25 225.074 345.617 224.754C344.992 224.434 344.457 223.984 344.012 223.406C343.566 222.828 343.223 222.148 342.98 221.367C342.746 220.586 342.629 219.734 342.629 218.812ZM346.004 218.566V218.812C346.004 219.336 346.055 219.824 346.156 220.277C346.258 220.73 346.414 221.133 346.625 221.484C346.844 221.828 347.113 222.098 347.434 222.293C347.762 222.48 348.148 222.574 348.594 222.574C349.211 222.574 349.715 222.445 350.105 222.188C350.496 221.922 350.789 221.559 350.984 221.098C351.18 220.637 351.293 220.105 351.324 219.504V217.969C351.309 217.477 351.242 217.035 351.125 216.645C351.008 216.246 350.844 215.906 350.633 215.625C350.422 215.344 350.148 215.125 349.812 214.969C349.477 214.812 349.078 214.734 348.617 214.734C348.172 214.734 347.785 214.836 347.457 215.039C347.137 215.234 346.867 215.504 346.648 215.848C346.438 216.191 346.277 216.598 346.168 217.066C346.059 217.527 346.004 218.027 346.004 218.566ZM360.406 212.32V225H357.02V212.32H360.406ZM356.809 209.016C356.809 208.523 356.98 208.117 357.324 207.797C357.668 207.477 358.129 207.316 358.707 207.316C359.277 207.316 359.734 207.477 360.078 207.797C360.43 208.117 360.605 208.523 360.605 209.016C360.605 209.508 360.43 209.914 360.078 210.234C359.734 210.555 359.277 210.715 358.707 210.715C358.129 210.715 357.668 210.555 357.324 210.234C356.98 209.914 356.809 209.508 356.809 209.016ZM366.5 215.027V225H363.125V212.32H366.289L366.5 215.027ZM366.008 218.215H365.094C365.094 217.277 365.215 216.434 365.457 215.684C365.699 214.926 366.039 214.281 366.477 213.75C366.914 213.211 367.434 212.801 368.035 212.52C368.645 212.23 369.324 212.086 370.074 212.086C370.668 212.086 371.211 212.172 371.703 212.344C372.195 212.516 372.617 212.789 372.969 213.164C373.328 213.539 373.602 214.035 373.789 214.652C373.984 215.27 374.082 216.023 374.082 216.914V225H370.684V216.902C370.684 216.34 370.605 215.902 370.449 215.59C370.293 215.277 370.062 215.059 369.758 214.934C369.461 214.801 369.094 214.734 368.656 214.734C368.203 214.734 367.809 214.824 367.473 215.004C367.145 215.184 366.871 215.434 366.652 215.754C366.441 216.066 366.281 216.434 366.172 216.855C366.062 217.277 366.008 217.73 366.008 218.215Z" fill="#4763FF"/>
<path d="M81.6992 40.586L81.4755 40.1915L81.6992 40.586C84.2639 39.1313 87.3998 39.1484 89.9489 40.6308L124.354 60.6402L124.61 60.2004L124.354 60.6402C126.963 62.1573 128.556 64.9763 128.52 68.014L128.039 107.833C128.003 110.761 126.457 113.457 123.96 114.95L89.9675 135.28C87.3777 136.828 84.1602 136.848 81.5521 135.332L47.1471 115.322L46.9089 115.732L47.1471 115.322C44.5976 113.839 43.0126 111.11 42.9809 108.141L42.5484 67.7909C42.5155 64.7249 44.1435 61.8864 46.7927 60.3838L81.6992 40.586Z" fill="#121214" stroke="url(#paint13_linear_7156_17660)" stroke-width="1.01761"/>
<path d="M114.842 67.815L89.0383 53.3082C87.0092 52.1675 84.5125 52.1544 82.4709 53.2738L56.291 67.6272C54.1825 68.7833 52.8883 70.966 52.9145 73.3221L53.2388 102.576C53.2641 104.858 54.5241 106.956 56.5532 108.097L82.357 122.604C84.4332 123.771 86.9948 123.756 89.0563 122.564L114.551 107.825C116.538 106.677 117.767 104.603 117.795 102.353L118.156 73.4844C118.185 71.1501 116.918 68.9823 114.842 67.815Z" fill="url(#paint14_linear_7156_17660)"/>
<path d="M114.414 108.348C108.734 118.984 98.1066 125.591 86.4903 125.591C74.8739 125.591 64.2469 119.014 58.5664 108.348H114.414Z" fill="url(#paint15_radial_7156_17660)"/>
<path d="M94.4076 64.8617V71.7651C93.718 72.1085 90.7872 73.4823 86.4772 73.4823C82.1673 73.4823 79.2365 72.1428 78.5469 71.7651V64.8617C78.5469 59.8473 84.1671 48.1699 86.4772 48.1699C88.8219 48.1699 94.4076 59.8473 94.4076 64.8617Z" fill="white"/>
<path d="M91.373 60.1879C91.0626 59.9475 89.6834 58.8828 86.4768 58.8828C83.2702 58.8828 81.891 59.9132 81.5807 60.1879C81.5462 60.2223 81.5117 60.2566 81.5117 60.3253V61.2183C81.5117 61.3557 81.6841 61.4587 81.7876 61.3557C82.3392 60.9779 83.7529 60.2566 86.4423 60.2566C89.1318 60.2566 90.5454 60.9779 91.0971 61.3557C91.235 61.4244 91.373 61.3557 91.373 61.2183V60.3253C91.4419 60.291 91.4419 60.2223 91.373 60.1879Z" fill="#4763FF"/>
<path d="M94.4062 90.2461C94.4062 90.2461 103.957 97.8364 104.543 108.689C104.578 109.308 103.992 109.754 103.405 109.582C100.613 108.724 98.6818 105.049 94.4062 105.049V90.2461Z" fill="#4763FF"/>
<path d="M78.5799 90.2461C78.5799 90.2461 69.029 97.8364 68.4429 108.689C68.4084 109.308 68.9945 109.754 69.5807 109.582C72.3736 108.724 74.3044 105.049 78.5799 105.049V90.2461V90.2461Z" fill="#4763FF"/>
<path d="M94.4076 76.2324C94.4076 87.6694 94.4076 105.048 94.4076 105.048H78.5469C78.5469 105.048 78.5469 87.6694 78.5469 76.2324C79.2365 76.5759 82.1673 77.9497 86.4772 77.9497C90.7872 77.9497 93.718 76.6102 94.4076 76.2324Z" fill="white"/>
<path d="M86.4738 90.2461C85.6118 90.2461 84.543 99.3132 84.543 109.067C84.543 110.613 85.5084 112.124 86.4738 112.124C87.4393 112.124 88.4047 110.578 88.4047 109.067C88.4392 99.3132 87.3703 90.2461 86.4738 90.2461Z" fill="#4763FF"/>
<path d="M86.4772 105.047H78.5469L80.2709 108.722C80.2709 108.722 84.9946 109.203 86.4772 109.203C87.9599 109.203 92.6836 108.722 92.6836 108.722L94.4076 105.047H86.4772Z" fill="#4763FF"/>
<path d="M86.8867 45.5598V43.4647H87.7832V41.0605H64.7852V103.74H66.3367V98.5887L69.8192 95.1198L72.2328 97.524L72.3018 97.5927L73.1982 96.2532L70.9226 93.9865L73.1982 91.7197V93.9865H74.7498V43.4304H86.0247V45.5254C85.2317 45.6971 84.68 46.384 84.68 47.2427C84.68 47.8265 84.9903 48.3761 85.4386 48.6852C85.542 48.7539 85.6455 48.8226 85.7489 48.8569V50.1277H87.0936V48.8569C87.1971 48.8226 87.335 48.7539 87.4384 48.6852C87.8867 48.3761 88.197 47.8609 88.197 47.2427C88.2315 46.4184 87.6453 45.7315 86.8867 45.5598ZM73.1982 43.4304L69.8537 46.7618L66.5091 43.4304H73.1982ZM73.2327 45.6285V50.1277L70.957 47.8609L73.2327 45.6285ZM66.3712 45.5254L68.7503 47.8952L66.3712 50.2651V45.5254V45.5254ZM66.3712 52.4631L69.8537 48.9943L73.2327 52.3601V52.6692L69.8537 56.035L66.3712 52.5662V52.4631V52.4631ZM73.2327 54.833V59.3322L70.957 57.0654L73.2327 54.833ZM66.3712 54.7299L68.7503 57.0997L66.3712 59.4696V54.7299V54.7299ZM66.3712 63.9344L68.7503 66.3042L66.3712 68.6741V63.9344V63.9344ZM66.3712 73.1733L68.7503 75.5431L66.3712 77.9129V73.1733V73.1733ZM66.3712 82.3778L68.7503 84.7476L66.3712 87.1174V82.3778V82.3778ZM66.3712 96.3563V91.6166L68.7503 93.9865L66.3712 96.3563ZM73.2327 89.5216L69.8537 92.8874L66.3712 89.4185V89.3499L69.8537 85.881L73.2327 89.2468V89.5216ZM73.2327 87.0144L70.957 84.7476L73.2327 82.4808V87.0144ZM73.2327 80.2827L69.8537 83.6486L66.3712 80.1797V80.111L69.8537 76.6421L73.2327 80.008V80.2827ZM73.2327 77.8099L70.957 75.5431L73.2327 73.2763V77.8099ZM73.2327 71.0782L69.8537 74.444L66.3712 70.9752V70.9065L69.8537 67.4376L73.2327 70.8035V71.0782ZM73.2327 68.571L70.957 66.3042L73.2327 64.0375V68.571ZM73.2327 61.5646V61.8737L69.8537 65.2395L67.8883 63.2819L66.3712 61.7707V61.702L69.8537 58.2331L73.2327 61.5646Z" fill="url(#paint16_linear_7156_17660)"/>
<defs>
<filter id="filter0_b_7156_17660" x="550" y="1" width="78" height="109" filterUnits="userSpaceOnUse" color-interpolation-filters="sRGB">
<feFlood flood-opacity="0" result="BackgroundImageFix"/>
<feGaussianBlur in="BackgroundImage" stdDeviation="10"/>
<feComposite in2="SourceAlpha" operator="in" result="effect1_backgroundBlur_7156_17660"/>
<feBlend mode="normal" in="SourceGraphic" in2="effect1_backgroundBlur_7156_17660" result="shape"/>
</filter>
<linearGradient id="paint0_linear_7156_17660" x1="18.5503" y1="237.023" x2="624.672" y2="237.023" gradientUnits="userSpaceOnUse">
<stop stop-color="#8257E5"/>
<stop offset="0.53" stop-color="#D72891"/>
<stop offset="1" stop-color="#F1594B"/>
</linearGradient>
<linearGradient id="paint1_linear_7156_17660" x1="172" y1="0" x2="172" y2="291" gradientUnits="userSpaceOnUse">
<stop stop-color="#665CF1"/>
<stop offset="1" stop-color="#5161FA"/>
</linearGradient>
<linearGradient id="paint2_linear_7156_17660" x1="571.101" y1="77.2013" x2="607.09" y2="77.2013" gradientUnits="userSpaceOnUse">
<stop stop-color="#8257E5"/>
<stop offset="0.53" stop-color="#D72891"/>
<stop offset="1" stop-color="#F1594B"/>
</linearGradient>
<linearGradient id="paint3_linear_7156_17660" x1="571.101" y1="77.2013" x2="607.09" y2="77.2013" gradientUnits="userSpaceOnUse">
<stop stop-color="#8257E5"/>
<stop offset="0.53" stop-color="#D72891"/>
<stop offset="1" stop-color="#F1594B"/>
</linearGradient>
<linearGradient id="paint4_linear_7156_17660" x1="571.101" y1="77.2013" x2="607.09" y2="77.2013" gradientUnits="userSpaceOnUse">
<stop stop-color="#8257E5"/>
<stop offset="0.53" stop-color="#D72891"/>
<stop offset="1" stop-color="#F1594B"/>
</linearGradient>
<linearGradient id="paint5_linear_7156_17660" x1="571.101" y1="77.2013" x2="607.09" y2="77.2013" gradientUnits="userSpaceOnUse">
<stop stop-color="#8257E5"/>
<stop offset="0.53" stop-color="#D72891"/>
<stop offset="1" stop-color="#F1594B"/>
</linearGradient>
<linearGradient id="paint6_linear_7156_17660" x1="571.101" y1="77.2013" x2="607.09" y2="77.2013" gradientUnits="userSpaceOnUse">
<stop stop-color="#8257E5"/>
<stop offset="0.53" stop-color="#D72891"/>
<stop offset="1" stop-color="#F1594B"/>
</linearGradient>
<linearGradient id="paint7_linear_7156_17660" x1="571.101" y1="77.2013" x2="607.09" y2="77.2013" gradientUnits="userSpaceOnUse">
<stop stop-color="#8257E5"/>
<stop offset="0.53" stop-color="#D72891"/>
<stop offset="1" stop-color="#F1594B"/>
</linearGradient>
<linearGradient id="paint8_linear_7156_17660" x1="571.101" y1="77.2013" x2="607.09" y2="77.2013" gradientUnits="userSpaceOnUse">
<stop stop-color="#8257E5"/>
<stop offset="0.53" stop-color="#D72891"/>
<stop offset="1" stop-color="#F1594B"/>
</linearGradient>
<linearGradient id="paint9_linear_7156_17660" x1="571.101" y1="77.2013" x2="607.09" y2="77.2013" gradientUnits="userSpaceOnUse">
<stop stop-color="#8257E5"/>
<stop offset="0.53" stop-color="#D72891"/>
<stop offset="1" stop-color="#F1594B"/>
</linearGradient>
<linearGradient id="paint10_linear_7156_17660" x1="571.101" y1="77.2013" x2="607.09" y2="77.2013" gradientUnits="userSpaceOnUse">
<stop stop-color="#8257E5"/>
<stop offset="0.53" stop-color="#D72891"/>
<stop offset="1" stop-color="#F1594B"/>
</linearGradient>
<linearGradient id="paint11_linear_7156_17660" x1="571.101" y1="77.2013" x2="607.09" y2="77.2013" gradientUnits="userSpaceOnUse">
<stop stop-color="#8257E5"/>
<stop offset="0.53" stop-color="#D72891"/>
<stop offset="1" stop-color="#F1594B"/>
</linearGradient>
<linearGradient id="paint12_linear_7156_17660" x1="357.953" y1="100.172" x2="500.4" y2="100.172" gradientUnits="userSpaceOnUse">
<stop stop-color="#8257E5"/>
<stop offset="0.53" stop-color="#D72891"/>
<stop offset="1" stop-color="#F1594B"/>
</linearGradient>
<linearGradient id="paint13_linear_7156_17660" x1="64.3907" y1="49.4069" x2="109.378" y2="124.801" gradientUnits="userSpaceOnUse">
<stop stop-color="#222A5B"/>
<stop offset="1" stop-color="#4763FF" stop-opacity="0.2"/>
</linearGradient>
<linearGradient id="paint14_linear_7156_17660" x1="52.929" y1="52.6362" x2="123.634" y2="117.606" gradientUnits="userSpaceOnUse">
<stop stop-color="#2D3B8A"/>
<stop offset="1" stop-color="#121214"/>
</linearGradient>
<radialGradient id="paint15_radial_7156_17660" cx="0" cy="0" r="1" gradientUnits="userSpaceOnUse" gradientTransform="translate(86.5665 108.304) scale(35.0959 19.2674)">
<stop stop-color="#3243A1"/>
<stop offset="0.5294" stop-color="#3243A1" stop-opacity="0"/>
</radialGradient>
<linearGradient id="paint16_linear_7156_17660" x1="76.516" y1="65.0754" x2="76.516" y2="103.512" gradientUnits="userSpaceOnUse">
<stop stop-color="#3F57DC"/>
<stop offset="0.677" stop-color="#3F57DC" stop-opacity="0"/>
</linearGradient>
</defs>
</svg>
